<?xml version="1.0" encoding="UTF-8" standalone="no"?>
<svg
   width="256"
   height="256"
   viewBox="0 0 128 128"
   fill="none"
   version="1.1"
   id="svg4"
   sodipodi:docname="logoLinux.svg"
   inkscape:version="1.4.2 (ebf0e94, 2025-05-08)"
   inkscape:export-filename="logoLinux.png"
   inkscape:export-xdpi="96"
   inkscape:export-ydpi="96"
   xmlns:inkscape="http://www.inkscape.org/namespaces/inkscape"
   xmlns:sodipodi="http://sodipodi.sourceforge.net/DTD/sodipodi-0.dtd"
   xmlns="http://www.w3.org/2000/svg"
   xmlns:svg="http://www.w3.org/2000/svg">
  <defs
     id="defs4" />
  <sodipodi:namedview
     id="namedview4"
     pagecolor="#ffffff"
     bordercolor="#999999"
     borderopacity="1"
     inkscape:showpageshadow="2"
     inkscape:pageopacity="0"
     inkscape:pagecheckerboard="0"
     inkscape:deskcolor="#d1d1d1"
     inkscape:zoom="1.5440339"
     inkscape:cx="114.95862"
     inkscape:cy="130.50232"
     inkscape:window-width="1900"
     inkscape:window-height="1042"
     inkscape:window-x="10"
     inkscape:window-y="28"
     inkscape:window-maximized="1"
     inkscape:current-layer="svg4"
     showgrid="false" />
  <rect
     width="128"
     height="128"
     rx="12"
     fill="#1E1E1E"
     id="rect1" />
  <g
     id="SVGRepo_bgCarrier-5"
     stroke-width="0"
     transform="matrix(4.9999896,0,0,5,58.5,73.5)" />
  <g
     id="SVGRepo_tracerCarrier-3"
     stroke-linecap="round"
     stroke-linejoin="round"
     transform="matrix(4.9999896,0,0,5,58.5,73.5)" />
  <g
     id="SVGRepo_iconCarrier"
     transform="matrix(4.3739252,0,0,3.9853418,30.974698,67.671113)"
     style="fill:#00ffb3;fill-opacity:1">
    <path
       d="M 5,8 V 7 h 1 v 1 z"
       fill="#000000"
       id="path1"
       style="fill:#00ffb3;fill-opacity:1" />
    <path
       d="M 9,8 V 7 h 1 v 1 z"
       fill="#000000"
       id="path2"
       style="fill:#00ffb3;fill-opacity:1" />
    <path
       fill-rule="evenodd"
       clip-rule="evenodd"
       d="m 1.00001,6.5 c 0,-3.58985 2.91015,-6.5 6.5,-6.5 C 11.0899,0 14,2.91015 14,6.5 v 6.514 c 0,0.1786 0.0709,0.3498 0.1972,0.4761 l 0.6564,0.6563 c 0.143,0.143 0.1857,0.3581 0.1084,0.5449 C 14.8846,14.8782 14.7022,15 14.5,15 H 0.500015 C 0.297783,15 0.115465,14.8782 0.0380749,14.6913 -0.0393156,14.5045 0.00346218,14.2894 0.146461,14.1464 l 0.65638,-0.6563 C 0.929089,13.3638 1.00001,13.1926 1.00001,13.014 Z M 4,6.5 C 4,5.67157 4.67157,5 5.5,5 6.32843,5 7,5.67157 7,6.5 v 1 C 7,8.32843 6.32843,9 5.5,9 4.67157,9 4,8.32843 4,7.5 Z m 4,0 C 8,5.67157 8.67157,5 9.5,5 10.3284,5 11,5.67157 11,6.5 v 1 C 11,8.32843 10.3284,9 9.5,9 8.67157,9 8,8.32843 8,7.5 Z m -3.40698,4.0125 c 1.82993,-0.91495 3.98385,-0.91495 5.81378,0 l 0.249,0.1245 -0.0952,0.0953 c -0.81177,0.8117 -1.91272,1.2678 -3.06069,1.2678 -1.14797,0 -2.24892,-0.4561 -3.06066,-1.2678 L 4.34399,10.637 Z"
       fill="#000000"
       id="path3"
       style="fill:#00ffb3;fill-opacity:1" />
  </g>
  <g
     id="SVGRepo_bgCarrier"
     stroke-width="0"
     transform="matrix(0.5,0,0,0.5,-85.542325,38.095677)"
     style="fill:#07ca90;fill-opacity:1" />
  <g
     id="SVGRepo_tracerCarrier"
     stroke-linecap="round"
     stroke-linejoin="round"
     transform="matrix(0.5,0,0,0.5,-85.542325,38.095677)"
     style="fill:#07ca90;fill-opacity:1" />
  <rect
     width="128"
     height="22.898033"
     rx="12"
     fill="#1e1e1e"
     id="rect1-7"
     x="-0.1529517"
     y="0.39355993"
     ry="10.909091"
     style="fill:#333333;fill-opacity:1;stroke-width:0.40125" />
  <rect
     x="0.32826477"
     y="14.793382"
     width="127.7925"
     height="8.8085871"
     fill="#374151"
     id="rect3"
     style="fill:#333333;fill-opacity:1;stroke-width:0.625186"
     inkscape:label="rect3" />
  <circle
     cx="12"
     cy="11"
     r="4"
     fill="#ff5f56"
     id="circle2" />
  <circle
     cx="24"
     cy="11"
     r="4"
     fill="#ffbd2e"
     id="circle3" />
  <circle
     cx="36"
     cy="11"
     r="4"
     fill="#27c93f"
     id="circle4" />
  <text
     x="64.35788"
     y="43.019432"
     dominant-baseline="middle"
     text-anchor="middle"
     font-family="monospace"
     font-size="36px"
     fill="#00ffb3"
     id="text4"
     style="font-size:14.2672px;stroke-width:0.764315">&gt;CustomFetch_</text>
</svg>
